<svg viewBox="0 0 38 53" xml:space="preserve" xmlns="http://www.w3.org/2000/svg"
  xmlns:xlink="http://www.w3.org/1999/xlink" fill="currentColor">
  <g transform="matrix(1,0,0,1,-31.3532,-21.9856)">
    <g>
      <g transform="matrix(0.565199,0,0,0.565199,21.4301,10.7609)">
        <path
          d="M35.551,28.723C35.551,27.446 36.586,26.411 37.864,26.411C39.141,26.411 40.176,27.446 40.176,28.723C40.176,29.555 39.735,30.278 39.074,30.684L42.168,37.895C40.426,39.637 38.352,38.809 38.352,38.809L38.004,31.024C37.957,31.028 37.91,31.039 37.864,31.039C36.586,31.035 35.551,30 35.551,28.723L35.551,28.723ZM73.946,25.668C72.259,25.668 70.891,27.036 70.891,28.723C70.891,29.618 71.278,30.418 71.891,30.977C68.555,36.368 57.411,51.575 50.715,26.758C52.297,26.43 53.489,25.028 53.489,23.344C53.489,21.418 51.926,19.86 50.004,19.86C48.079,19.86 46.52,21.422 46.52,23.344C46.52,25.024 47.711,26.426 49.293,26.758C42.598,51.578 31.453,36.368 28.117,30.977C28.731,30.418 29.117,29.618 29.117,28.723C29.117,27.036 27.75,25.668 26.063,25.668C24.367,25.668 23,27.036 23,28.723C23,30.411 24.367,31.778 26.055,31.778C26.195,31.778 26.332,31.766 26.469,31.746C27.981,34.918 31.887,43.738 33.121,52.715L66.879,52.715C68.117,43.739 72.02,34.918 73.531,31.746C73.668,31.766 73.805,31.778 73.946,31.778C75.633,31.778 77,30.411 77,28.723C77,27.036 75.633,25.668 73.946,25.668L73.946,25.668ZM61.649,38.809L61.997,31.024C62.044,31.028 62.09,31.04 62.137,31.04C63.415,31.04 64.45,30.005 64.45,28.727C64.45,27.45 63.415,26.415 62.137,26.415C60.86,26.415 59.825,27.45 59.825,28.727C59.825,29.559 60.266,30.282 60.926,30.688L57.833,37.899C59.575,39.637 61.649,38.809 61.649,38.809L61.649,38.809Z"
          style="fill-rule:nonzero;" />
      </g>
      <g transform="matrix(0.710356,0,0,0.710356,14.4822,23.4822)">
        <path
          d="M68.75,27.5L53.75,27.5L53.75,35L46.25,35L46.25,27.5L31.25,27.5L31.25,35L38.75,35L38.75,42.5L31.25,42.5L31.25,35L23.75,35L23.75,50L31.25,50L31.25,57.5L38.75,57.5L38.75,65L46.25,65L46.25,72.5L53.75,72.5L53.75,65L61.25,65L61.25,57.5L68.75,57.5L68.75,50L76.25,50L76.25,35L68.75,35L68.75,27.5Z"
          style="fill-rule:nonzero;" />
      </g>
    </g>
  </g>
</svg>